<svg id="钢笔路径" xmlns="http://www.w3.org/2000/svg" width="1024" height="1024" viewBox="0 0 1024 1024">
    <path id="路径_1653" data-name="路径 1653" d="M512,533.333m-42.667,0A42.667,42.667,0,1,0,512,490.667a42.667,42.667,0,0,0-42.667,42.667Z" fill="#2c2c2c"/>
    <path id="路径_1654" data-name="路径 1654" d="M917.333,533.333m-42.667,0a42.667,42.667,0,1,0,42.667-42.667,42.667,42.667,0,0,0-42.667,42.667Z" fill="#00a6ff"/>
    <path id="路径_1655" data-name="路径 1655" d="M106.667,533.333m-42.667,0a42.667,42.667,0,1,0,42.667-42.667A42.667,42.667,0,0,0,64,533.333Z" fill="#00a6ff"/>
    <path id="路径_1656" data-name="路径 1656" d="M106.667,64v42.667H21.333V21.333h85.333V64Zm448,2.133v40.533H469.333V21.333h85.333Zm448-44.8v85.333H917.333V21.333Z" fill="#00a6ff"/>
    <path id="路径_1657" data-name="路径 1657" d="M384,874.667H661.333v128H384Z" fill="#ffb13b"/>
    <path id="路径_1658" data-name="路径 1658" d="M661.333,789.333v85.333H384V789.333H661.333Z" fill="#1676c4"/>
    <path id="路径_1659" data-name="路径 1659" d="M512,490.667a42.667,42.667,0,1,0,42.667,42.667A42.667,42.667,0,0,0,512,490.667Zm0-384,256,512L618.667,704v85.333H405.333V704L256,618.667Z" fill="#d9d9d9"/>
    <path id="路径_1660" data-name="路径 1660" d="M512,106.667v384A42.667,42.667,0,0,1,512,576V789.333H618.667V704L768,618.667Z" fill="#f0f0f0"/>
    <path id="路径_1661" data-name="路径 1661" d="M405.333,725.333H512v64H405.333Z" fill="#c1c1c1"/>
    <path id="路径_1662" data-name="路径 1662" d="M512,725.333H618.667v64H512Z" fill="#cfcfcf"/>
    <path id="路径_1663" data-name="路径 1663" d="M533.333,789.333h128v85.333h-128Z" fill="#0091ff"/>
    <path id="路径_1664" data-name="路径 1664" d="M533.333,874.667h128v128h-128Z" fill="#ffe45c"/>
    <path id="路径_1665" data-name="路径 1665" d="M917.333,533.333m-21.333,0A21.333,21.333,0,1,0,917.333,512,21.333,21.333,0,0,0,896,533.333Z" fill="#1676c4"/>
    <path id="路径_1666" data-name="路径 1666" d="M106.667,533.333m-21.333,0A21.333,21.333,0,1,0,106.667,512a21.333,21.333,0,0,0-21.333,21.333Z" fill="#1676c4"/>
    <path id="路径_1667" data-name="路径 1667" d="M938.667,42.667h42.667V85.333H938.667Zm-896,0H85.333V85.333H42.667Zm448,0h42.667V85.333H490.667Z" fill="#1676c4"/>
    <path id="路径_1668" data-name="路径 1668" d="M649,594.265c19.052,19.038,45.582,23.379,59.257,9.694s9.316-40.212-9.735-59.25-45.582-23.379-59.257-9.694S629.952,575.227,649,594.265Z" fill="#f6fafd"/>
    <path id="路径_1669" data-name="路径 1669" d="M618.584,496.893c9.568,9.561,22.893,11.738,29.764,4.862s4.685-20.2-4.883-29.761-22.893-11.738-29.764-4.862-4.685,20.2,4.883,29.761Z" fill="#f6fafd"/>
    <path id="路径_1670" data-name="路径 1670" d="M619.387,927.988c4.784,4.78,11.45,5.865,14.89,2.423s2.35-10.108-2.434-14.888-11.45-5.866-14.89-2.424-2.35,10.108,2.434,14.888Z" fill="#f6fafd"/>
    <path id="路径_1671" data-name="路径 1671" d="M938.667,473.259v-3.925a440.217,440.217,0,0,0-2.316-45.028l-42.463,4.324a391.043,391.043,0,0,1,2.112,40.7v4.032a64,64,0,1,0,42.667,0Zm-21.333,81.408a21.333,21.333,0,1,1,21.333-21.333A21.333,21.333,0,0,1,917.333,554.667ZM128,473.259v-3.925A384.7,384.7,0,0,1,276.331,164.267l-26.283-33.536a427.136,427.136,0,0,0-164.715,338.6v4.032a64,64,0,1,0,42.667,0Zm-21.333,81.408A21.333,21.333,0,1,1,128,533.333a21.333,21.333,0,0,1-21.333,21.333Z"/>
    <path id="路径_1672" data-name="路径 1672" d="M1002.667,0H917.333A21.333,21.333,0,0,0,896,21.333V42.667H576V21.333A21.333,21.333,0,0,0,554.667,0H469.333A21.333,21.333,0,0,0,448,21.333V42.667H128V21.333A21.333,21.333,0,0,0,106.667,0H21.333A21.333,21.333,0,0,0,0,21.333v85.333A21.333,21.333,0,0,0,21.333,128h85.333A21.333,21.333,0,0,0,128,106.667V85.333H321.984a415.231,415.231,0,0,0-40.235,22.848l23.147,35.84A382.955,382.955,0,0,1,448,88.491v18.176A21.333,21.333,0,0,0,469.333,128h8.149l-48.576,97.131L467.093,244.2l23.573-47.168V473.259a64,64,0,1,0,42.667,0V197.035L695.616,521.6l38.165-19.093L546.517,128h8.149A21.333,21.333,0,0,0,576,106.667V88.661A383.232,383.232,0,0,1,887.467,387.883l41.728-8.9A426.667,426.667,0,0,0,702.123,85.333H896v21.333A21.333,21.333,0,0,0,917.333,128h85.333A21.333,21.333,0,0,0,1024,106.667V21.333A21.333,21.333,0,0,0,1002.667,0ZM85.333,85.333H42.667V42.667H85.333ZM490.667,42.667h42.667V85.333H490.667Zm21.333,512a21.333,21.333,0,1,1,21.333-21.333A21.333,21.333,0,0,1,512,554.667ZM981.333,85.333H938.667V42.667h42.667Z"/>
    <path id="路径_1673" data-name="路径 1673" d="M755.051,545.067l-38.165,19.072L739.9,610.133,608,685.483A21.333,21.333,0,0,0,597.333,704v64H426.667V704A21.333,21.333,0,0,0,416,685.483L284.1,610.133,403.2,372.2l-38.187-19.072-128,256a21.333,21.333,0,0,0,8.533,28.053L384,716.373V768a21.333,21.333,0,0,0-21.333,21.333v213.333A21.333,21.333,0,0,0,384,1024H661.333a21.333,21.333,0,0,0,21.333-21.333V789.333A21.333,21.333,0,0,0,661.333,768H640V716.373l138.667-79.189a21.333,21.333,0,0,0,8.533-28.053Zm-136.384,265.6H640v42.667H405.333V810.667ZM640,981.333H405.333V896H640ZM386.24,310.443l21.333-42.667,38.165,19.093-21.333,42.667Z"/>
</svg>